# xmcd
#
# Track frame offsets:
#	150
#	18225
#	34265
#	57777
#	72480
#	86975
#	108215
#	123900
#	139627
#	157475
#	169860
#	183342
#	194022
#	206737
#
# Disc length: 2933 seconds
# Revision: 11
# Processed by: cddbd v1.5.2PL0 Copyright (c) Steve Scherf et al.
# Submitted via: dBpowerAMP V12.0
#
DISCID=cf0b730e
DTITLE=Muddy Waters - Folk Singer
DYEAR=1964
DGENRE=Blues
TTITLE0=My Home Is in the Delta
TTITLE1=Long Distance
TTITLE2=My Captain
TTITLE3=Good Morning Little Schoolgirl
TTITLE4=You Gonna Need My Help
TTITLE5=Cold Weather Blues
TTITLE6=Big Leg Woman
TTITLE7=Country Boy
TTITLE8=Feel Like Going Home
TTITLE9=The Same Thing
TTITLE10=You Can't Lose What You Never Had
TTITLE11=My John the Conquerer Root
TTITLE12=Short Dress Woman
TTITLE13=Put Me in Your Lay Away
EXTD=
EXTT0=
EXTT1=
EXTT2=
EXTT3=
EXTT4=
EXTT5=
EXTT6=
EXTT7=
EXTT8=
EXTT9=
EXTT10=
EXTT11=
EXTT12=
EXTT13=
PLAYORDER=
